<mxfile host="app.diagrams.net" modified="2022-03-06T20:19:58.269Z" agent="5.0 (X11; Linux x86_64) AppleWebKit/537.36 (KHTML, like Gecko) Chrome/98.0.4758.102 Safari/537.36" etag="tV6XILJuASonwUWx73UW" version="16.6.6" type="github">
  <diagram id="idb4He_RjkY-GYz-atJZ" name="Page-1">
    <mxGraphModel dx="1465" dy="1113" grid="1" gridSize="10" guides="1" tooltips="1" connect="1" arrows="1" fold="1" page="1" pageScale="1" pageWidth="850" pageHeight="1100" math="0" shadow="0">
      <root>
        <mxCell id="0" />
        <mxCell id="1" parent="0" />
      </root>
    </mxGraphModel>
  </diagram>
</mxfile>
